<?xml version="1.0" encoding="UTF-8" standalone="no"?>
<!-- Created with Inkscape (http://www.inkscape.org/) -->
<svg
   xmlns:dc="http://purl.org/dc/elements/1.1/"
   xmlns:cc="http://web.resource.org/cc/"
   xmlns:rdf="http://www.w3.org/1999/02/22-rdf-syntax-ns#"
   xmlns:svg="http://www.w3.org/2000/svg"
   xmlns="http://www.w3.org/2000/svg"
   xmlns:sodipodi="http://inkscape.sourceforge.net/DTD/sodipodi-0.dtd"
   xmlns:inkscape="http://www.inkscape.org/namespaces/inkscape"
   width="744.09448819"
   height="1052.3622047"
   id="svg2"
   sodipodi:version="0.32"
   inkscape:version="0.43"
   sodipodi:docbase="/Users/david/graphics/infinite copyright"
   sodipodi:docname="mic1.svg"
   inkscape:export-filename="/Users/david/graphics/infinite copyright/mic1a.png"
   inkscape:export-xdpi="288"
   inkscape:export-ydpi="288">
  <defs
     id="defs4" />
  <sodipodi:namedview
     id="base"
     pagecolor="#ffffff"
     bordercolor="#666666"
     borderopacity="1.0"
     inkscape:pageopacity="0.0"
     inkscape:pageshadow="2"
     inkscape:zoom="3.0702777"
     inkscape:cx="338.16375"
     inkscape:cy="731.59156"
     inkscape:document-units="px"
     inkscape:current-layer="layer1"
     inkscape:window-width="739"
     inkscape:window-height="810"
     inkscape:window-x="586"
     inkscape:window-y="22" />
  <metadata
     id="metadata7">
    <rdf:RDF>
      <cc:Work
         rdf:about="">
        <dc:format>image/svg+xml</dc:format>
        <dc:type
           rdf:resource="http://purl.org/dc/dcmitype/StillImage" />
        <dc:title>Mickey's infinite copyright</dc:title>
        <dc:date>2005-08-14</dc:date>
        <dc:creator>
          <cc:Agent>
            <dc:title>David Goodger &lt;goodger@python.org&gt;</dc:title>
          </cc:Agent>
        </dc:creator>
        <cc:license
           rdf:resource="http://creativecommons.org/licenses/by-nc-sa/2.0/" />
        <dc:rights>
          <cc:Agent>
            <dc:title>©2005, David John Goodger</dc:title>
          </cc:Agent>
        </dc:rights>
        <dc:description>Mickey's copyright is effectively infinite</dc:description>
      </cc:Work>
      <cc:License
         rdf:about="http://creativecommons.org/licenses/by-nc-sa/2.0/">
        <cc:permits
           rdf:resource="http://web.resource.org/cc/Reproduction" />
        <cc:permits
           rdf:resource="http://web.resource.org/cc/Distribution" />
        <cc:requires
           rdf:resource="http://web.resource.org/cc/Notice" />
        <cc:requires
           rdf:resource="http://web.resource.org/cc/Attribution" />
        <cc:prohibits
           rdf:resource="http://web.resource.org/cc/CommercialUse" />
        <cc:permits
           rdf:resource="http://web.resource.org/cc/DerivativeWorks" />
        <cc:requires
           rdf:resource="http://web.resource.org/cc/ShareAlike" />
      </cc:License>
    </rdf:RDF>
  </metadata>
  <g
     inkscape:label="Layer 1"
     inkscape:groupmode="layer"
     id="layer1"
     style="display:inline">
    <g
       id="g4209">
      <path
         id="text3182"
         d="M 380.80286,406.99255 C 380.80278,412.13209 379.12133,416.38328 375.75853,419.74616 C 372.39556,423.17252 368.0809,424.88568 362.81457,424.88567 C 358.88055,424.88568 354.47072,423.33114 349.58508,420.22204 C 347.17389,418.69924 343.36684,415.74877 338.16393,411.37065 C 332.96092,415.74877 329.15388,418.69924 326.74279,420.22204 C 321.85705,423.33114 317.44722,424.88568 313.5133,424.88567 C 308.24687,424.88568 303.93222,423.17252 300.56934,419.74616 C 297.20644,416.38328 295.525,412.13209 295.525,406.99255 C 295.525,401.78962 297.20644,397.28462 300.56934,393.47753 C 303.93222,389.73398 308.24687,387.86219 313.5133,387.86213 C 317.44722,387.86219 321.85705,389.41672 326.74279,392.52577 C 328.90008,393.85828 332.70712,396.74529 338.16393,401.1868 C 343.811,396.68184 347.61805,393.79483 349.58508,392.52577 C 354.47072,389.41672 358.88055,387.86219 362.81457,387.86213 C 368.0809,387.86219 372.39556,389.73398 375.75853,393.47753 C 379.12133,397.28462 380.80278,401.78962 380.80286,406.99255 M 372.99842,406.99255 C 372.99834,403.88349 372.04658,401.18683 370.14313,398.90257 C 368.30298,396.61839 365.86013,395.47627 362.81457,395.47623 C 359.00745,395.47627 352.78928,399.09296 344.16003,406.32631 C 348.15738,409.68923 351.04438,411.97346 352.82107,413.179 C 356.8184,415.9074 360.14956,417.27159 362.81457,417.27157 C 365.86013,417.27159 368.30298,416.31983 370.14313,414.41629 C 372.04658,412.44934 372.99834,409.97476 372.99842,406.99255 M 332.16783,406.32631 C 323.53849,399.09296 317.32032,395.47627 313.5133,395.47623 C 310.46764,395.47627 308.02479,396.61839 306.18473,398.90257 C 304.2812,401.18683 303.32944,403.88349 303.32945,406.99255 C 303.32944,410.03821 304.24948,412.51279 306.08956,414.41629 C 307.92961,416.31983 310.40419,417.27159 313.5133,417.27157 C 316.17821,417.27159 319.50937,415.9074 323.5068,413.179 C 325.28339,411.97346 328.1704,409.68923 332.16783,406.32631"
         style="font-size:108px;font-style:normal;font-variant:normal;font-weight:bold;font-stretch:normal;text-align:center;line-height:100%;writing-mode:lr-tb;text-anchor:middle;fill:#000000;fill-opacity:1;stroke:#000000;stroke-width:2.5;stroke-linecap:butt;stroke-linejoin:miter;stroke-miterlimit:4;stroke-dasharray:none;stroke-opacity:1;display:inline;font-family:LiHei Pro" />
      <path
         id="copyright"
         d="M 363.13086,286.1366 L 363.13086,302.50964 L 361.10449,300.88855 C 354.51196,295.75517 347.81144,293.18844 341.00293,293.18835 C 333.70794,293.18844 327.54779,295.72815 322.52246,300.8075 C 317.49702,305.94103 314.98433,312.18224 314.98438,319.53113 C 314.98433,326.88014 317.49702,333.01327 322.52246,337.93054 C 327.65586,342.90194 333.84303,345.38761 341.08398,345.38757 C 347.67635,345.38761 354.34985,342.73983 361.10449,337.44421 L 363.13086,335.82312 L 363.13086,352.35828 C 355.99796,356.24893 348.59497,358.19424 340.92188,358.19421 C 329.73627,358.19424 320.22586,354.43871 312.39062,346.92761 C 304.5553,339.41659 300.63766,330.28443 300.6377,319.53113 C 300.63766,308.66987 304.63636,299.42965 312.63379,291.81042 C 320.63113,284.19138 330.33067,280.38182 341.73242,280.38171 C 348.86515,280.38182 355.78181,282.19203 362.48242,285.81238 L 363.13086,286.1366 M 403.09082,319.12585 C 403.09068,337.22811 396.76842,352.62849 384.12402,365.32703 C 371.47939,378.0256 356.18709,384.37488 338.24707,384.37488 C 320.30691,384.37488 304.96057,377.99858 292.20801,365.24597 C 279.56346,352.54743 273.2412,337.12004 273.24121,318.96375 C 273.2412,308.91304 275.29459,299.75387 279.40137,291.48621 C 283.56216,282.67836 289.34405,275.22134 296.74707,269.11511 C 308.8512,259.11849 322.44135,254.12012 337.51758,254.12 C 347.51424,254.12012 356.56534,256.0114 364.6709,259.79382 C 376.18055,264.81933 385.4478,272.7897 392.47266,283.70496 C 399.5513,294.67444 403.09068,306.4814 403.09082,319.12585 M 337.76074,263.60339 C 322.9547,263.60351 310.25614,269.06119 299.66504,279.97644 C 289.01983,290.94593 283.69725,303.96871 283.69727,319.0448 C 283.69725,334.44524 289.01983,347.63012 299.66504,358.59949 C 310.25614,369.51486 323.11681,374.97254 338.24707,374.97253 C 353.21508,374.97254 366.02171,369.54188 376.66699,358.68054 C 387.25802,347.76521 392.55359,334.58033 392.55371,319.12585 C 392.55359,310.85835 390.47318,302.3206 386.3125,293.51257 C 382.20561,285.24509 376.74794,278.67967 369.93945,273.81628 C 360.37491,267.00781 349.64868,263.60351 337.76074,263.60339"
         style="fill:#000000;fill-opacity:1;stroke:none" />
      <path
         transform="matrix(0.831129,-0.693086,0.862044,1.106144,-139.3614,148.1566)"
         d="M 279 245.61218 A 37 23.75 0 1 1  205,245.61218 A 37 23.75 0 1 1  279 245.61218 z"
         sodipodi:ry="23.75"
         sodipodi:rx="37"
         sodipodi:cy="245.61218"
         sodipodi:cx="242"
         id="leftear"
         style="fill:#000000;fill-opacity:1;fill-rule:nonzero;stroke:none"
         sodipodi:type="arc" />
      <path
         sodipodi:type="arc"
         style="fill:#000000;fill-opacity:1;fill-rule:nonzero;stroke:none"
         id="rightear"
         sodipodi:cx="242"
         sodipodi:cy="245.61218"
         sodipodi:rx="37"
         sodipodi:ry="23.75"
         d="M 279 245.61218 A 37 23.75 0 1 1  205,245.61218 A 37 23.75 0 1 1  279 245.61218 z"
         transform="matrix(-0.831178,-0.693086,-0.862095,1.106144,815.7111,148.1566)" />
    </g>
  </g>
</svg>
