<?xml version="1.0" encoding="UTF-8" standalone="no"?>
<!-- Generator: Adobe Illustrator 12.0.1, SVG Export Plug-In . SVG Version: 6.00 Build 51448)  -->
<svg
   xmlns:dc="http://purl.org/dc/elements/1.1/"
   xmlns:cc="http://creativecommons.org/ns#"
   xmlns:rdf="http://www.w3.org/1999/02/22-rdf-syntax-ns#"
   xmlns:svg="http://www.w3.org/2000/svg"
   xmlns="http://www.w3.org/2000/svg"
   xmlns:sodipodi="http://sodipodi.sourceforge.net/DTD/sodipodi-0.dtd"
   xmlns:inkscape="http://www.inkscape.org/namespaces/inkscape"
   version="1.1"
   id="Drawing"
   width="160.542"
   height="160.401"
   viewBox="0 0 160.542 160.401"
   overflow="visible"
   enable-background="new 0 0 160.542 160.401"
   xml:space="preserve"
   sodipodi:version="0.32"
   inkscape:version="0.46"
   sodipodi:docname="no_infinite_copyright.svg"
   inkscape:output_extension="org.inkscape.output.svg.inkscape"
   inkscape:export-filename="C:\misc\downloads\no_infinite_copyright.png"
   inkscape:export-xdpi="89.775002"
   inkscape:export-ydpi="89.775002"><metadata
   id="metadata8"><rdf:RDF><cc:Work
       rdf:about=""><dc:format>image/svg+xml</dc:format><dc:type
         rdf:resource="http://purl.org/dc/dcmitype/StillImage" /><cc:license
         rdf:resource="http://creativecommons.org/licenses/by-nc-sa/3.0/" /></cc:Work><cc:License
       rdf:about="http://creativecommons.org/licenses/by-nc-sa/3.0/"><cc:permits
         rdf:resource="http://creativecommons.org/ns#Reproduction" /><cc:permits
         rdf:resource="http://creativecommons.org/ns#Distribution" /><cc:requires
         rdf:resource="http://creativecommons.org/ns#Notice" /><cc:requires
         rdf:resource="http://creativecommons.org/ns#Attribution" /><cc:prohibits
         rdf:resource="http://creativecommons.org/ns#CommercialUse" /><cc:permits
         rdf:resource="http://creativecommons.org/ns#DerivativeWorks" /><cc:requires
         rdf:resource="http://creativecommons.org/ns#ShareAlike" /></cc:License></rdf:RDF></metadata><defs
   id="defs6"><inkscape:perspective
     sodipodi:type="inkscape:persp3d"
     inkscape:vp_x="0 : 80.2005 : 1"
     inkscape:vp_y="0 : 1000 : 0"
     inkscape:vp_z="160.54201 : 80.2005 : 1"
     inkscape:persp3d-origin="80.271004 : 53.467 : 1"
     id="perspective10" /><inkscape:perspective
     id="perspective2449"
     inkscape:persp3d-origin="372.04724 : 350.78739 : 1"
     inkscape:vp_z="744.09448 : 526.18109 : 1"
     inkscape:vp_y="0 : 1000 : 0"
     inkscape:vp_x="0 : 526.18109 : 1"
     sodipodi:type="inkscape:persp3d" /></defs><sodipodi:namedview
   inkscape:window-height="667"
   inkscape:window-width="754"
   inkscape:pageshadow="2"
   inkscape:pageopacity="0.0"
   guidetolerance="10.0"
   gridtolerance="10.0"
   objecttolerance="10.0"
   borderopacity="1.0"
   bordercolor="#666666"
   pagecolor="#ffffff"
   id="base"
   showgrid="false"
   inkscape:zoom="2.6099089"
   inkscape:cx="80.271007"
   inkscape:cy="80.2005"
   inkscape:window-x="351"
   inkscape:window-y="90"
   inkscape:current-layer="Drawing" />
<g
   style="display:inline"
   id="layer1"
   inkscape:label="Layer 1"
   transform="matrix(0.5619308,0,0,0.5619308,-109.75362,-99.462332)"><g
     id="g3608"><g
       id="g4215"><path
         d="M 403.09082,319.12585 C 403.09068,337.22811 396.76842,352.62849 384.12402,365.32703 C 371.47939,378.0256 356.18709,384.37488 338.24707,384.37488 C 320.30691,384.37488 304.96057,377.99858 292.20801,365.24597 C 279.56346,352.54743 273.2412,337.12004 273.24121,318.96375 C 273.2412,308.91304 275.29459,299.75387 279.40137,291.48621 C 283.56216,282.67836 289.34405,275.22134 296.74707,269.11511 C 308.8512,259.11849 322.44135,254.12012 337.51758,254.12 C 347.51424,254.12012 356.56534,256.0114 364.6709,259.79382 C 376.18055,264.81933 385.4478,272.7897 392.47266,283.70496 C 399.5513,294.67444 403.09068,306.4814 403.09082,319.12585 M 337.76074,263.60339 C 322.9547,263.60351 310.25614,269.06119 299.66504,279.97644 C 289.01983,290.94593 283.69725,303.96871 283.69727,319.0448 C 283.69725,334.44524 289.01983,347.63012 299.66504,358.59949 C 310.25614,369.51486 323.11681,374.97254 338.24707,374.97253 C 353.21508,374.97254 366.02171,369.54188 376.66699,358.68054 C 387.25802,347.76521 392.55359,334.58033 392.55371,319.12585 C 392.55359,310.85835 390.47318,302.3206 386.3125,293.51257 C 382.20561,285.24509 376.74794,278.67967 369.93945,273.81628 C 360.37491,267.00781 349.64868,263.60351 337.76074,263.60339"
         style="fill:#000000;fill-opacity:1;stroke:none"
         id="path2135" /><path
         transform="matrix(0.831129,-0.693086,0.862044,1.106144,-139.3614,148.1566)"
         d="M 279,245.61218 A 37,23.75 0 1 1 205,245.61218 A 37,23.75 0 1 1 279,245.61218 z"
         sodipodi:ry="23.75"
         sodipodi:rx="37"
         sodipodi:cy="245.61218"
         sodipodi:cx="242"
         id="leftear"
         style="fill:#000000;fill-opacity:1;fill-rule:nonzero;stroke:none"
         sodipodi:type="arc" /><path
         sodipodi:type="arc"
         style="fill:#000000;fill-opacity:1;fill-rule:nonzero;stroke:none"
         id="rightear"
         sodipodi:cx="242"
         sodipodi:cy="245.61218"
         sodipodi:rx="37"
         sodipodi:ry="23.75"
         d="M 279,245.61218 A 37,23.75 0 1 1 205,245.61218 A 37,23.75 0 1 1 279,245.61218 z"
         transform="matrix(-0.831178,-0.693086,-0.862095,1.106144,815.7111,148.1566)" /><path
         id="path2144"
         d="M 337.78125,280.34375 C 328.77262,280.34383 320.63895,283.30787 313.40625,289.28125 C 308.98266,292.92995 305.54875,297.39324 303.0625,302.65625 C 300.60853,307.59651 299.37501,313.05682 299.375,319.0625 C 299.375,329.91161 303.16312,339.13087 310.71875,346.71875 C 318.3389,354.33893 327.4988,358.15626 338.21875,358.15625 C 348.93862,358.15625 358.06934,354.36915 365.625,346.78125 C 371.01255,341.37064 374.39155,335.11487 375.9375,328.0625 L 361.59375,328.0625 C 360.39047,331.47054 358.53271,334.6037 355.84375,337.375 C 350.95204,342.36598 345.06556,344.875 338.1875,344.875 C 331.23487,344.875 325.33556,342.35954 320.46875,337.34375 C 315.5771,332.30312 313.12498,326.23304 313.125,319.15625 C 313.12499,312.22853 315.57711,306.25944 320.46875,301.21875 C 325.33555,296.20301 331.16513,293.68756 337.96875,293.6875 C 343.43147,293.68756 348.35494,295.24639 352.75,298.375 C 355.87863,300.6098 358.39405,303.63845 360.28125,307.4375 C 360.76224,308.45574 361.01501,309.43498 361.375,310.4375 L 375.875,310.4375 C 374.86266,306.11882 373.1768,301.9544 370.625,298 C 366.42738,291.47769 360.87747,286.72169 354,283.71875 C 349.15661,281.4586 343.75463,280.34382 337.78125,280.34375 z"
         style="fill:#000000;fill-opacity:1;stroke:none" /><path
         id="text3182"
         d="M 380.80268,406.99204 C 380.8026,412.13158 379.12115,416.38277 375.75835,419.74565 C 372.39538,423.17201 368.08072,424.88517 362.81439,424.88516 C 358.88037,424.88517 354.47054,423.33063 349.5849,420.22153 C 347.17371,418.69873 343.36666,415.74826 338.16375,411.37014 C 332.96074,415.74826 329.1537,418.69873 326.74261,420.22153 C 321.85687,423.33063 317.44704,424.88517 313.51312,424.88516 C 308.24669,424.88517 303.93204,423.17201 300.56916,419.74565 C 297.20626,416.38277 295.52482,412.13158 295.52482,406.99204 C 295.52482,401.78911 297.20626,397.28411 300.56916,393.47702 C 303.93204,389.73347 308.24669,387.86168 313.51312,387.86162 C 317.44704,387.86168 321.85687,389.41621 326.74261,392.52526 C 328.8999,393.85777 332.70694,396.74478 338.16375,401.18629 C 343.81082,396.68133 347.61787,393.79432 349.5849,392.52526 C 354.47054,389.41621 358.88037,387.86168 362.81439,387.86162 C 368.08072,387.86168 372.39538,389.73347 375.75835,393.47702 C 379.12115,397.28411 380.8026,401.78911 380.80268,406.99204 M 372.99824,406.99204 C 372.99816,403.88298 372.0464,401.18632 370.14295,398.90206 C 368.3028,396.61788 365.85995,395.47576 362.81439,395.47572 C 359.00727,395.47576 352.7891,399.09245 344.15985,406.3258 C 348.1572,409.68872 351.0442,411.97295 352.82089,413.17849 C 356.81822,415.90689 360.14938,417.27108 362.81439,417.27106 C 365.85995,417.27108 368.3028,416.31932 370.14295,414.41578 C 372.0464,412.44883 372.99816,409.97425 372.99824,406.99204 M 332.16765,406.3258 C 323.53831,399.09245 317.32014,395.47576 313.51312,395.47572 C 310.46746,395.47576 308.02461,396.61788 306.18455,398.90206 C 304.28102,401.18632 303.32926,403.88298 303.32927,406.99204 C 303.32926,410.0377 304.2493,412.51228 306.08938,414.41578 C 307.92943,416.31932 310.40401,417.27108 313.51312,417.27106 C 316.17803,417.27108 319.50919,415.90689 323.50662,413.17849 C 325.28321,411.97295 328.17022,409.68872 332.16765,406.3258"
         style="font-size:108px;font-style:normal;font-variant:normal;font-weight:bold;font-stretch:normal;text-align:center;line-height:100%;writing-mode:lr-tb;text-anchor:middle;fill:#000000;fill-opacity:1;stroke:#000000;stroke-width:4.44894648;stroke-linecap:butt;stroke-linejoin:miter;stroke-miterlimit:4;stroke-dasharray:none;stroke-opacity:1;display:inline;font-family:LiHei Pro" /></g></g></g><path
   fill="#B92326"
   stroke="#000000"
   stroke-width="0"
   stroke-miterlimit="10"
   d="M160.542,80.201  c0,44.272-35.962,80.2-80.271,80.2C35.961,160.401,0,124.473,0,80.201C0,35.93,35.961,0,80.271,0  C124.58,0,160.542,35.93,160.542,80.201 M120.895,129.892L30.541,39.61c-9.375,11.459-14.496,25.804-14.496,40.603  c0,35.417,28.77,64.164,64.218,64.164c14.813,0,29.17-5.118,40.639-14.483L120.895,129.892z M129.976,120.825  c9.376-11.461,14.495-25.806,14.495-40.607c0-35.416-28.769-64.159-64.213-64.159c-14.815,0-29.172,5.116-40.641,14.482  l90.358,90.278L129.976,120.825z"
   id="path3" />
</svg>